<svg width="236" height="32" viewBox="0 0 236 32" fill="none" xmlns="http://www.w3.org/2000/svg">
<path d="M8.5 4C7.43 4 6.498 4.66321 5.906 5.56858C5.314 6.47396 5 7.64331 5 8.90864C5 10.174 5.314 11.3444 5.906 12.2498C6.498 13.1552 7.43 13.8173 8.5 13.8173C9.57 13.8173 10.502 13.1541 11.094 12.2487C11.686 11.3433 12 10.174 12 8.90864C12 7.64331 11.686 6.47287 11.094 5.56749C10.502 4.66212 9.57 4 8.5 4ZM12 8.90864C12 10.174 12.314 11.3444 12.906 12.2498C13.498 13.1552 14.431 13.8173 15.5 13.8173C16.57 13.8173 17.502 13.1541 18.094 12.2487C18.686 11.3433 19 10.174 19 8.90864C19 7.64331 18.686 6.47287 18.094 5.56749C17.502 4.66212 16.57 4 15.5 4C14.43 4 13.498 4.66321 12.906 5.56858C12.314 6.47396 12 7.64331 12 8.90864ZM8.5 6.18162C8.812 6.18162 9.156 6.35179 9.47 6.82956C9.78 7.30624 10 8.06545 10 8.90864C10 9.75184 9.78 10.5121 9.47 10.9877C9.156 11.4655 8.812 11.6357 8.5 11.6357C8.188 11.6357 7.844 11.4655 7.53 10.9877C7.22 10.511 7 9.75184 7 8.90864C7 8.06545 7.22 7.30515 7.53 6.82956C7.844 6.35179 8.188 6.18162 8.5 6.18162ZM15.5 6.18162C15.812 6.18162 16.156 6.35179 16.47 6.82956C16.78 7.30624 17 8.06545 17 8.90864C17 9.75184 16.78 10.5121 16.47 10.9877C16.156 11.4655 15.812 11.6357 15.5 11.6357C15.188 11.6357 14.844 11.4655 14.53 10.9877C14.22 10.511 14 9.75184 14 8.90864C14 8.06545 14.22 7.30515 14.53 6.82956C14.844 6.35179 15.188 6.18162 15.5 6.18162ZM3.5 11.6357C2.43 11.6357 1.498 12.2989 0.906 13.2043C0.314 14.1096 0 15.279 0 16.5443C0 17.8097 0.314 18.9801 0.906 19.8855C1.498 20.7908 2.43 21.453 3.5 21.453C4.57 21.453 5.502 20.7897 6.094 19.8844C6.686 18.979 7 17.8097 7 16.5443C7 15.279 6.686 14.1085 6.094 13.2032C5.502 12.2978 4.57 11.6357 3.5 11.6357ZM20.5 11.6357C19.43 11.6357 18.498 12.2989 17.906 13.2043C17.314 14.1096 17 15.279 17 16.5443C17 17.8097 17.314 18.9801 17.906 19.8855C18.498 20.7908 19.43 21.453 20.5 21.453C21.57 21.453 22.502 20.7897 23.094 19.8844C23.686 18.979 24 17.8097 24 16.5443C24 15.279 23.686 14.1085 23.094 13.2032C22.502 12.2978 21.57 11.6357 20.5 11.6357ZM3.5 13.8173C3.812 13.8173 4.156 13.9875 4.47 14.4652C4.78 14.9419 5 15.7011 5 16.5443C5 17.3875 4.78 18.1478 4.47 18.6234C4.156 19.1012 3.812 19.2713 3.5 19.2713C3.188 19.2713 2.844 19.1012 2.53 18.6234C2.22 18.1478 2 17.3875 2 16.5443C2 15.7011 2.22 14.9408 2.53 14.4652C2.844 13.9875 3.188 13.8173 3.5 13.8173ZM20.5 13.8173C20.812 13.8173 21.156 13.9875 21.47 14.4652C21.78 14.9419 22 15.7011 22 16.5443C22 17.3875 21.78 18.1478 21.47 18.6234C21.156 19.1012 20.812 19.2713 20.5 19.2713C20.188 19.2713 19.844 19.1012 19.53 18.6234C19.22 18.1467 19 17.3875 19 16.5443C19 15.7011 19.22 14.9408 19.53 14.4652C19.844 13.9875 20.188 13.8173 20.5 13.8173ZM12 15.9989C10.667 15.9989 9.737 16.9425 9.28 17.7715C8.826 18.6005 8.546 19.2899 8.28 19.5779C8.127 19.7491 7.162 20.1451 6.156 20.7047C5.653 20.985 5.146 21.3591 4.719 21.9318C4.289 22.5045 3.999 23.2953 3.999 24.1822C3.999 26.2765 5.579 28 7.499 28C8.365 28 9.269 27.6946 10.154 27.4219C11.043 27.1426 12 26.907 12 26.907C12 26.907 12.957 27.1426 13.844 27.4197C14.73 27.6924 15.634 27.9978 16.5 27.9978C18.42 27.9978 20 26.2743 20 24.18C20 23.3139 19.707 22.522 19.28 21.9656C18.855 21.4061 18.343 21.0603 17.844 20.7712C16.844 20.1931 15.861 19.7349 15.719 19.5779C15.479 19.3193 15.209 18.607 14.749 17.7737C14.29 16.937 13.34 15.9989 12 15.9989ZM12 18.1805C12.66 18.1805 12.733 18.3551 13.03 18.8961C13.33 19.4361 13.554 20.3534 14.28 21.1464C15.105 22.0409 16.147 22.2373 16.906 22.6779C17.286 22.8983 17.576 23.1328 17.75 23.3597C17.923 23.5855 18 23.7917 18 24.1778C18 25.0941 17.34 25.814 16.5 25.814C16.21 25.814 15.276 25.574 14.406 25.3013C13.536 25.0319 12.816 24.7232 12 24.7232C11.184 24.7232 10.464 25.0319 9.594 25.3013C8.724 25.574 7.79 25.814 7.5 25.814C6.66 25.814 6 25.0941 6 24.1778C6 23.7382 6.084 23.5124 6.25 23.2899C6.416 23.0684 6.722 22.8492 7.094 22.643C7.838 22.2285 8.874 22.0649 9.719 21.1432C10.452 20.3392 10.672 19.3924 10.969 18.8579C11.261 18.3234 11.331 18.1762 11.999 18.1762L12 18.1805Z" fill="#1E1E1E"/>
<path d="M34.768 25L37.552 7.48H40.552L39.424 14.56H41.44L45.904 7.48H49.192L43.864 16.024L46.6 25H43.36L41.152 17.296H38.992L37.768 25H34.768ZM49.1106 25L49.5426 22.264H54.1506L55.3986 14.512H51.3666L51.7986 11.8H58.6626L57.0306 22.264H61.1106L60.6786 25H49.1106ZM57.4146 9.592C56.8066 9.592 56.3506 9.44 56.0466 9.136C55.7426 8.816 55.6306 8.392 55.7106 7.864C55.8066 7.336 56.0546 6.92 56.4546 6.616C56.8546 6.296 57.3586 6.136 57.9666 6.136C58.5586 6.136 59.0066 6.296 59.3106 6.616C59.6306 6.92 59.7426 7.336 59.6466 7.864C59.5666 8.392 59.3266 8.816 58.9266 9.136C58.5266 9.44 58.0226 9.592 57.4146 9.592ZM70.3653 25C69.1013 25 68.1733 24.648 67.5813 23.944C66.9893 23.24 66.7893 22.272 66.9813 21.04L68.0133 14.512H64.4373L64.8453 11.8H68.4213L68.9973 8.2H72.0213L71.4453 11.8H76.5093L76.0773 14.512H71.0133L69.9813 21.04C69.8373 21.872 70.1733 22.288 70.9893 22.288H74.5893L74.1813 25H70.3653ZM84.7559 25C83.4919 25 82.5639 24.648 81.9719 23.944C81.3799 23.24 81.1799 22.272 81.3719 21.04L82.4039 14.512H78.8279L79.2359 11.8H82.8119L83.3879 8.2H86.4119L85.8359 11.8H90.8999L90.4679 14.512H85.4039L84.3719 21.04C84.2279 21.872 84.5639 22.288 85.3799 22.288H88.9799L88.5719 25H84.7559ZM92.2825 25L92.7145 22.264H97.3225L98.5705 14.512H94.5385L94.9705 11.8H101.835L100.203 22.264H104.283L103.851 25H92.2825ZM100.587 9.592C99.9785 9.592 99.5225 9.44 99.2185 9.136C98.9145 8.816 98.8025 8.392 98.8825 7.864C98.9785 7.336 99.2265 6.92 99.6265 6.616C100.027 6.296 100.531 6.136 101.139 6.136C101.731 6.136 102.179 6.296 102.483 6.616C102.803 6.92 102.915 7.336 102.819 7.864C102.739 8.392 102.499 8.816 102.099 9.136C101.699 9.44 101.195 9.592 100.587 9.592ZM112.073 25.24C110.953 25.24 110.017 25.024 109.265 24.592C108.513 24.16 107.969 23.56 107.633 22.792C107.313 22.008 107.233 21.096 107.393 20.056L107.921 16.744C108.097 15.704 108.473 14.8 109.049 14.032C109.625 13.248 110.353 12.64 111.233 12.208C112.129 11.776 113.137 11.56 114.257 11.56C115.361 11.56 116.289 11.776 117.041 12.208C117.793 12.64 118.329 13.248 118.649 14.032C118.985 14.8 119.065 15.704 118.889 16.744L118.505 19.12H110.441L110.273 20.056C110.145 20.984 110.257 21.688 110.609 22.168C110.977 22.632 111.601 22.864 112.481 22.864C113.153 22.864 113.705 22.752 114.137 22.528C114.585 22.288 114.897 21.944 115.073 21.496H118.049C117.777 22.248 117.345 22.904 116.753 23.464C116.177 24.024 115.489 24.464 114.689 24.784C113.889 25.088 113.017 25.24 112.073 25.24ZM115.889 17.44L116.009 16.72C116.153 15.808 116.049 15.112 115.697 14.632C115.345 14.136 114.737 13.888 113.873 13.888C113.009 13.888 112.313 14.136 111.785 14.632C111.273 15.128 110.945 15.832 110.801 16.744L110.729 17.248L116.153 17.2L115.889 17.44ZM125.888 25.24C124.368 25.24 123.208 24.888 122.408 24.184C121.608 23.48 121.272 22.552 121.4 21.4H124.4C124.368 21.816 124.52 22.152 124.856 22.408C125.208 22.664 125.688 22.792 126.296 22.792H127.328C128.064 22.792 128.64 22.648 129.056 22.36C129.488 22.072 129.736 21.68 129.8 21.184C129.88 20.72 129.776 20.352 129.488 20.08C129.216 19.792 128.744 19.6 128.072 19.504L126.488 19.264C125.016 19.056 123.968 18.672 123.344 18.112C122.736 17.536 122.52 16.656 122.696 15.472C122.888 14.24 123.456 13.28 124.4 12.592C125.344 11.904 126.624 11.56 128.24 11.56H129.152C130.624 11.56 131.744 11.896 132.512 12.568C133.28 13.224 133.608 14.104 133.496 15.208H130.496C130.512 14.856 130.368 14.568 130.064 14.344C129.76 14.12 129.32 14.008 128.744 14.008H127.832C127.144 14.008 126.624 14.136 126.272 14.392C125.92 14.632 125.704 14.992 125.624 15.472C125.56 15.92 125.64 16.264 125.864 16.504C126.088 16.744 126.504 16.912 127.112 17.008L128.768 17.248C130.304 17.456 131.4 17.864 132.056 18.472C132.712 19.064 132.944 19.96 132.752 21.16C132.544 22.44 131.944 23.44 130.952 24.16C129.976 24.88 128.64 25.24 126.944 25.24H125.888ZM149.989 25L152.773 7.48H163.669L163.213 10.264H155.293L154.549 14.944H161.845L161.413 17.728H154.165L152.989 25H149.989ZM168.508 25.24C167.18 25.24 166.188 24.784 165.532 23.872C164.892 22.96 164.7 21.736 164.956 20.2L165.508 16.624C165.684 15.584 166.012 14.688 166.492 13.936C166.972 13.184 167.572 12.6 168.292 12.184C169.012 11.768 169.812 11.56 170.692 11.56C171.78 11.56 172.588 11.872 173.116 12.496C173.66 13.104 173.844 13.944 173.668 15.016L173.116 14.32H173.788L174.124 11.8H177.124L175.036 25H172.084L172.492 22.48H171.844L172.612 21.784C172.436 22.856 171.98 23.704 171.244 24.328C170.508 24.936 169.596 25.24 168.508 25.24ZM169.996 22.648C170.748 22.648 171.372 22.424 171.868 21.976C172.364 21.512 172.676 20.872 172.804 20.056L173.332 16.744C173.476 15.928 173.364 15.296 172.996 14.848C172.628 14.384 172.068 14.152 171.316 14.152C170.548 14.152 169.916 14.376 169.42 14.824C168.94 15.272 168.636 15.912 168.508 16.744L167.98 20.056C167.836 20.888 167.94 21.528 168.292 21.976C168.644 22.424 169.212 22.648 169.996 22.648ZM182.13 25L179.922 11.8H182.946L184.122 19.816C184.202 20.296 184.266 20.792 184.314 21.304C184.378 21.816 184.418 22.224 184.434 22.528C184.562 22.224 184.722 21.816 184.914 21.304C185.122 20.792 185.338 20.304 185.562 19.84L189.234 11.8H192.354L185.994 25H182.13ZM192.081 25L199.281 7.48H203.145L204.801 25H201.825L201.537 20.752H196.881L195.249 25H192.081ZM197.793 18.304H201.369L201.057 13.6C201.009 12.816 200.961 12.112 200.913 11.488C200.881 10.848 200.865 10.384 200.865 10.096C200.769 10.384 200.609 10.848 200.385 11.488C200.177 12.112 199.929 12.808 199.641 13.576L197.793 18.304ZM206.784 29.32L209.568 11.8H212.496L212.088 14.32H212.76L211.992 15.016C212.152 13.944 212.6 13.104 213.336 12.496C214.088 11.872 215.008 11.56 216.096 11.56C217.424 11.56 218.408 12.016 219.048 12.928C219.688 13.84 219.888 15.064 219.648 16.6L219.072 20.176C218.912 21.2 218.592 22.096 218.112 22.864C217.632 23.616 217.032 24.2 216.312 24.616C215.608 25.032 214.808 25.24 213.912 25.24C212.824 25.24 212.008 24.936 211.464 24.328C210.936 23.704 210.752 22.856 210.912 21.784L211.488 22.48H210.792L210.384 25.624L209.784 29.32H206.784ZM213.288 22.648C214.056 22.648 214.68 22.424 215.16 21.976C215.656 21.528 215.968 20.888 216.096 20.056L216.624 16.744C216.752 15.912 216.64 15.272 216.288 14.824C215.952 14.376 215.392 14.152 214.608 14.152C213.872 14.152 213.248 14.384 212.736 14.848C212.24 15.296 211.92 15.928 211.776 16.744L211.248 20.056C211.12 20.872 211.24 21.512 211.608 21.976C211.976 22.424 212.536 22.648 213.288 22.648ZM221.174 29.32L223.958 11.8H226.886L226.478 14.32H227.15L226.382 15.016C226.542 13.944 226.99 13.104 227.726 12.496C228.478 11.872 229.398 11.56 230.486 11.56C231.814 11.56 232.798 12.016 233.438 12.928C234.078 13.84 234.278 15.064 234.038 16.6L233.462 20.176C233.302 21.2 232.982 22.096 232.502 22.864C232.022 23.616 231.422 24.2 230.702 24.616C229.998 25.032 229.198 25.24 228.302 25.24C227.214 25.24 226.398 24.936 225.854 24.328C225.326 23.704 225.142 22.856 225.302 21.784L225.878 22.48H225.182L224.774 25.624L224.174 29.32H221.174ZM227.678 22.648C228.446 22.648 229.07 22.424 229.55 21.976C230.046 21.528 230.358 20.888 230.486 20.056L231.014 16.744C231.142 15.912 231.03 15.272 230.678 14.824C230.342 14.376 229.782 14.152 228.998 14.152C228.262 14.152 227.638 14.384 227.126 14.848C226.63 15.296 226.31 15.928 226.166 16.744L225.638 20.056C225.51 20.872 225.63 21.512 225.998 21.976C226.366 22.424 226.926 22.648 227.678 22.648Z" fill="black"/>
</svg>
