<svg width="69" height="61" viewBox="0 0 69 61" fill="none" xmlns="http://www.w3.org/2000/svg">
<path d="M25.8742 19.4057C25.8742 21.1213 25.1927 22.7666 23.9797 23.9797C22.7666 25.1928 21.1213 25.8743 19.4057 25.8743C17.6901 25.8743 16.0448 25.1928 14.8317 23.9797C13.6186 22.7666 12.9371 21.1213 12.9371 19.4057C12.9371 17.6901 13.6186 16.0448 14.8317 14.8317C16.0448 13.6186 17.6901 12.9371 19.4057 12.9371C21.1213 12.9371 22.7666 13.6186 23.9797 14.8317C25.1927 16.0448 25.8742 17.6901 25.8742 19.4057Z" fill="#36404E"/>
<path d="M8.62475 0C6.33732 0 4.14359 0.908677 2.52613 2.52613C0.908677 4.14359 0 6.33732 0 8.62475V51.7485C0 54.0359 0.908677 56.2297 2.52613 57.8471C4.14359 59.4646 6.33732 60.3733 8.62475 60.3733H60.3733C62.6607 60.3733 64.8544 59.4646 66.4719 57.8471C68.0893 56.2297 68.998 54.0359 68.998 51.7485V8.62475C68.998 6.33732 68.0893 4.14359 66.4719 2.52613C64.8544 0.908677 62.6607 0 60.3733 0H8.62475ZM60.3733 4.31238C61.517 4.31238 62.6138 4.76671 63.4226 5.57544C64.2313 6.38417 64.6856 7.48104 64.6856 8.62475V36.6552L48.3978 28.259C47.9934 28.0564 47.5355 27.9861 47.089 28.0581C46.6424 28.1301 46.2298 28.3407 45.9095 28.66L29.9106 44.659L18.4397 37.0174C18.0256 36.7417 17.5288 36.6177 17.0336 36.6664C16.5385 36.7151 16.0754 36.9336 15.7229 37.2848L4.31238 47.4361V8.62475C4.31238 7.48104 4.76671 6.38417 5.57544 5.57544C6.38417 4.76671 7.48104 4.31238 8.62475 4.31238H60.3733Z" fill="#36404E"/>
</svg>
